<svg width="18" height="32" fill="none" xmlns="http://www.w3.org/2000/svg"><path d="M1.434 17.232h3.508v13.99c0 .276.23.5.516.5h5.947a.508.508 0 00.517-.5V17.298h4.032a.51.51 0 00.513-.443l.612-5.15a.49.49 0 00-.127-.39.524.524 0 00-.386-.167h-4.644V7.919c0-.973.54-1.466 1.608-1.466h3.037a.508.508 0 00.516-.5V1.225c0-.276-.231-.5-.516-.5H12.38a4.246 4.246 0 00-.191-.003c-.727 0-3.25.138-5.245 1.915-2.209 1.969-1.902 4.327-1.829 4.736v3.775H1.434a.508.508 0 00-.516.5v5.084c0 .276.231.5.516.5z" fill="#fff"/></svg>