<svg width="14" height="25" fill="none" xmlns="http://www.w3.org/2000/svg"><path d="M1 12.866h2.733v10.9c0 .216.18.39.402.39H8.77a.396.396 0 00.402-.39v-10.85h3.142a.398.398 0 00.4-.344l.477-4.013a.382.382 0 00-.1-.304.408.408 0 00-.3-.13H9.172V5.608c0-.759.422-1.143 1.253-1.143h2.366a.396.396 0 00.403-.39V.392c0-.215-.18-.39-.403-.39h-3.26A3.311 3.311 0 009.38 0c-.566 0-2.533.108-4.087 1.492-1.721 1.535-1.482 3.372-1.425 3.69v2.942H1a.396.396 0 00-.401.39v3.962c0 .215.18.39.402.39z" fill="#323232"/></svg>