<svg width="26" height="25" fill="none" xmlns="http://www.w3.org/2000/svg"><path d="M9.467 18v.867h.867V18h-.867zm-3.243 0l-.804.323.218.544h.586V18zm-2.626-6.55l.805-.323-.219-.544h-.586v.866zm-.138 0v-.867h-.924l.06.922.864-.056zM3.598 18v.867h.867V18h-.867zm-2.56 0H.17v.867h.866V18zm0-10.606v-.867H.17v.867h.866zm3.228 0l.804-.322-.218-.545h-.586v.867zm2.582 6.45l-.804.321.218.545h.586v-.867zm.182 0v.866h.933l-.07-.931-.863.064zm-.124-6.45v-.867H6.04v.867h.866zm2.561 0h.867v-.867h-.867v.867zm5.477 7.66l-.619-.606-.003.003.622.604zm-3.866-.014l-.625.6.006.007.619-.607zm3.852-3.939l-.625.6.006.007.619-.607zM10.432 18h-.867v.867h.867V18zm0-1.603v-.867h-.867v.867h.867zm5.194 0h.867v-.867h-.867v.867zm0 1.603v.867h.867V18h-.867zm-3.17-3.99l-.756.424.006.011.007.01.743-.445zm1.095 0l-.748-.438-.003.006.751.432zm0-1.864l-.764.408.006.011.006.01.752-.43zm-1.095 0l-.757-.423-.003.006.76.417zm-2.989 4.987H6.224v1.734h3.243v-1.734zm-2.438.544l-2.626-6.55-1.61.645 2.627 6.55 1.609-.645zm-3.43-7.094H3.46v1.733h.138v-1.733zm-1.004.922c.092 1.43.137 2.45.137 3.078h1.733c0-.687-.048-1.756-.14-3.19l-1.73.112zm.137 3.078V18h1.733v-3.417H2.732zm.866 2.55h-2.56v1.734h2.56v-1.734zM1.904 18V7.394H.171V18h1.733zm-.867-9.74h3.229V6.528H1.037v1.734zm2.424-.544l2.583 6.45 1.609-.645-2.583-6.45-1.609.645zm3.387 6.994h.182v-1.734h-.182v1.734zm1.046-.931a40.001 40.001 0 01-.121-2.954H6.04c0 .935.042 1.963.125 3.083l1.729-.13zm-.121-2.954V7.394H6.04v3.431h1.733zm-.867-2.564h2.561V6.527h-2.56v1.734zM8.6 7.394V18h1.734V7.394H8.6zm6.196 5.659c0 .676-.186 1.105-.47 1.395l1.237 1.213c.673-.687.966-1.592.966-2.608h-1.733zm-.474 1.398c-.277.286-.682.47-1.322.47v1.733c1.004 0 1.896-.305 2.566-.996l-1.244-1.207zm-1.322.47c-.595 0-1.001-.179-1.304-.488l-1.237 1.214c.674.688 1.55 1.007 2.541 1.007v-1.733zm-1.298-.481c-.3-.314-.483-.747-.483-1.387H9.485c0 1.003.302 1.895.968 2.588l1.25-1.201zm-.483-1.387c0-.654.181-1.077.466-1.37l-1.244-1.207c-.663.683-.956 1.575-.956 2.576h1.734zm.466-1.37c.275-.283.684-.47 1.344-.47V9.48c-1.014 0-1.915.302-2.588.996l1.244 1.207zm1.344-.47c.58 0 .977.177 1.276.489l1.25-1.202c-.668-.694-1.539-1.02-2.526-1.02v1.733zm1.282.495c.305.311.485.732.485 1.345h1.733c0-.993-.309-1.874-.98-2.559l-1.238 1.214zM11.299 18v-1.603H9.565V18H11.3zm-.867-.737h5.194V15.53h-5.194v1.733zm4.327-.866V18h1.734v-1.603h-1.734zm.867.736h-5.194v1.734h5.194v-1.734zm-4.204-4.051c0 .462.055.955.278 1.352l1.512-.848c.006.01-.011-.017-.028-.11a2.287 2.287 0 01-.028-.395h-1.734zm.29 1.374c.297.494.791.71 1.303.71v-1.732c-.02 0 .012-.004.067.025.06.03.1.075.117.105l-1.486.892zm1.303.71c.517 0 1.003-.229 1.288-.724l-1.503-.864a.318.318 0 01.122-.113c.061-.033.102-.031.092-.031v1.733zm1.284-.718c.235-.401.293-.9.293-1.367H12.86c0 .174-.012.3-.029.389-.017.09-.034.114-.027.102l1.496.876zm.293-1.367c0-.468-.059-.964-.288-1.365l-1.505.86c-.004-.007.014.022.03.114.018.09.03.218.03.392h1.733zm-.276-1.344a1.447 1.447 0 00-.547-.575 1.49 1.49 0 00-.755-.195V12.7c.001 0-.01 0-.033-.005a.314.314 0 01-.083-.034.3.3 0 01-.11-.107l1.528-.817zm-1.302-.77c-.54 0-1.032.25-1.315.756l1.514.845a.287.287 0 01-.108.1c-.06.034-.1.032-.09.032v-1.733zm-1.318.762c-.218.397-.274.887-.274 1.353h1.734c0-.175.011-.305.028-.398.017-.095.035-.127.032-.122l-1.52-.833zm11.061-.25l-.437.748.009.005.428-.754zm1.146 1.196l-.767.402.003.006.765-.408zm-.66 4.52l-.574-.65-.002.003.576.647zm-6.268.377h-.866v.542l.487.237.38-.779zm0-2.35l.362-.788-1.228-.565v1.353h.866zm1.422.478l-.2.843h.001l.2-.843zm2.597-.145l.533.684.007-.006-.54-.678zm-2.785-2.038l-.386.776.317.157.336-.109-.267-.824zm-1.052-.523l-.865-.061-.04.58.52.258.385-.777zm.399-5.6v-.867h-.807l-.058.805.865.062zm6.05 0h.867v-.867h-.867v.867zm0 2.387v.866h.867v-.866h-.867zm-3.613 0v-.867h-.79l-.073.786.863.08zm-.13 1.4L19 11.1l-.107 1.149 1.133-.218-.163-.851zm.805-.116l.026.866h.013l.013-.001-.052-.865zm.442.852c.468 0 .864.108 1.21.31l.874-1.497a4.07 4.07 0 00-2.084-.546v1.733zm1.219.315c.344.195.61.47.807.845l1.535-.804a3.746 3.746 0 00-1.485-1.548l-.857 1.507zm.81.85c.199.375.311.828.311 1.385h1.734c0-.797-.164-1.538-.516-2.2l-1.53.816zm.311 1.385c0 1.001-.294 1.648-.781 2.079l1.149 1.298c.945-.837 1.366-2.008 1.366-3.377H23.45zm-.783 2.08c-.488.435-1.32.731-2.66.731v1.734c1.553 0 2.878-.338 3.813-1.17l-1.153-1.294zm-2.66.731c-1.157 0-2.026-.18-2.652-.485l-.76 1.558c.941.459 2.095.66 3.413.66v-1.733zm-2.165.294v-2.35H16.11v2.35h1.733zm-1.229-1.563c.48.22 1.01.398 1.583.534l.402-1.686c-.48-.114-.9-.257-1.26-.423l-.725 1.575zm1.585.535c.572.135 1.1.212 1.57.212v-1.734c-.293 0-.68-.049-1.171-.165l-.399 1.687zm1.57.212c.638 0 1.265-.132 1.76-.517l-1.066-1.367c-.077.06-.267.15-.694.15v1.734zm1.766-.523c.535-.426.755-1.035.755-1.679h-1.733c0 .237-.066.295-.102.323l1.08 1.356zm.755-1.679c0-.641-.244-1.223-.767-1.633l-1.07 1.365c.058.045.104.097.104.268h1.733zm-.767-1.633c-.51-.4-1.18-.525-1.855-.525v1.733c.504 0 .716.102.786.157l1.069-1.364zm-1.855-.525a5.61 5.61 0 00-1.726.296l.535 1.65c.454-.148.85-.213 1.19-.213v-1.733zm-1.073.345l-1.052-.523-.77 1.553 1.051.522.771-1.552zm-.573.315l.4-5.6-1.73-.124-.399 5.6 1.73.124zm-.465-4.795h6.05V6.527h-6.05v1.734zm5.183-.867v2.387h1.734V7.394h-1.734zm.867 1.52h-3.613v1.733h3.613V8.914zM19.13 9.7L19 11.1l1.726.161.13-1.4-1.726-.16zm.896 2.332c.378-.073.585-.098.668-.101l-.052-1.732a6.578 6.578 0 00-.943.13l.327 1.703zm.694-.102c.146-.009.275-.013.39-.013v-1.733c-.155 0-.32.005-.494.016l.104 1.73z" fill="#fff"/></svg>