<svg width="22" height="21" fill="none" xmlns="http://www.w3.org/2000/svg"><path d="M20.951 9.442l-1.868-.618a8.658 8.658 0 00-.313-1.17l1.312-1.471-.128-.264a10.554 10.554 0 00-.764-1.32l-.164-.242-1.922.4a8.886 8.886 0 00-.86-.862l.399-1.921-.242-.165a10.529 10.529 0 00-1.321-.764l-.264-.127-1.47 1.312a8.723 8.723 0 00-1.17-.312L11.558.049l-.292-.021a10.625 10.625 0 00-1.53 0l-.291.02-.618 1.87a8.742 8.742 0 00-1.17.312L6.186.918l-.264.128c-.457.222-.901.48-1.32.764l-.242.165.4 1.921a8.892 8.892 0 00-.861.861l-1.921-.4-.165.242c-.286.422-.543.866-.764 1.321l-.127.264 1.311 1.47c-.13.381-.235.773-.312 1.17l-1.869.618-.021.292c-.019.253-.031.507-.031.764 0 .258.012.512.03.765l.022.292 1.868.618c.077.398.182.79.313 1.17L.92 14.814l.128.264c.222.457.479.901.764 1.32l.164.242 1.922-.4c.267.307.555.595.86.862l-.399 1.921.242.165c.422.286.866.543 1.321.764l.264.127 1.47-1.312c.382.131.774.236 1.17.313l.618 1.869.292.02c.253.019.507.031.764.031.258 0 .512-.012.765-.03l.292-.022.618-1.869a8.47 8.47 0 001.17-.312l1.471 1.312.264-.128c.457-.222.901-.479 1.32-.764l.242-.164-.4-1.922c.307-.267.595-.555.862-.86l1.921.399.165-.242c.286-.422.543-.866.764-1.321l.127-.264-1.312-1.47c.13-.382.235-.774.312-1.17l1.869-.618.021-.292c.019-.253.031-.507.031-.764 0-.258-.012-.512-.03-.765l-.022-.292zm-.834 1.467l-1.809.598-.043.262a7.8 7.8 0 01-.405 1.515l-.093.248 1.268 1.423a9.53 9.53 0 01-.41.708l-1.858-.387-.168.205a7.974 7.974 0 01-1.115 1.115l-.206.168.387 1.859a9.86 9.86 0 01-.707.41l-1.423-1.27-.248.095a7.89 7.89 0 01-1.515.405l-.262.042-.598 1.81c-.272.013-.55.013-.822 0l-.598-1.81-.262-.042a7.78 7.78 0 01-1.515-.405l-.248-.094-1.423 1.268a9.511 9.511 0 01-.707-.41l.386-1.858-.205-.168a7.974 7.974 0 01-1.115-1.115l-.168-.206-1.859.388a9.879 9.879 0 01-.41-.708l1.27-1.423-.095-.248a7.82 7.82 0 01-.404-1.515l-.043-.262-1.81-.598a8.495 8.495 0 01.001-.82l1.81-.6.043-.261c.083-.518.22-1.028.405-1.515l.094-.248-1.269-1.423a9.51 9.51 0 01.41-.708l1.858.387.168-.206A7.97 7.97 0 015.52 4.401l.206-.168-.387-1.859c.23-.146.466-.283.707-.41l1.423 1.269.248-.094c.488-.185.998-.32 1.515-.405l.262-.043.598-1.809c.272-.013.55-.013.822 0l.598 1.81.262.042c.518.084 1.028.22 1.515.405l.248.094 1.423-1.268c.24.125.477.263.707.41l-.386 1.858.205.168a7.94 7.94 0 011.115 1.115l.168.206 1.859-.388c.146.23.283.466.41.708l-1.27 1.423.095.248c.184.486.32.995.405 1.515l.042.262 1.81.598a8.444 8.444 0 01-.001.82z" fill="#fff"/><path d="M10.375 4.374C8.105 4.44 6.2 6.338 6.129 8.61a4.354 4.354 0 001.509 3.443c.708.612 1.114 1.47 1.114 2.385v2.187h1.313v.876h.875v-.876h1.313v-2.217c0-.875.414-1.741 1.137-2.375a4.37 4.37 0 001.488-3.284 4.34 4.34 0 00-1.326-3.138 4.4 4.4 0 00-3.177-1.236zm1.002 11.375h-1.75v-.875h1.75v.875zm1.435-4.375c-.796.699-1.296 1.63-1.41 2.625h-.462V9.804l1.184-1.184-.619-.619-1.003 1.004L9.5 8l-.619.619 1.185 1.184V14h-.46a4.04 4.04 0 00-1.396-2.61 3.484 3.484 0 01-1.207-2.754C7.06 6.82 8.583 5.3 10.4 5.249a3.45 3.45 0 012.543.988 3.473 3.473 0 011.06 2.511 3.493 3.493 0 01-1.19 2.626z" fill="#fff"/></svg>