<svg width="19" height="19" fill="none" xmlns="http://www.w3.org/2000/svg"><path d="M3.167 19h12.666v-1.583H19v-4.75c0-2.31-1.53-4.268-3.628-4.917a3.56 3.56 0 001.649-3 3.567 3.567 0 00-3.563-3.563c-.338 0-.674.051-1.002.148A3.947 3.947 0 009.5 0C8.324 0 7.27.519 6.544 1.335a3.524 3.524 0 00-1.002-.147A3.567 3.567 0 001.979 4.75c0 1.26.66 2.366 1.649 3A5.154 5.154 0 000 12.667v4.75h3.167V19zm11.875-.792H3.958v-5.937c0-.132.009-.263.02-.392l.014-.127c.01-.09.025-.178.04-.265.01-.045.016-.09.025-.133.025-.114.054-.225.087-.336.016-.055.036-.108.055-.162a4.323 4.323 0 01.35-.766c.04-.067.08-.135.122-.2.033-.051.07-.1.104-.15a3.998 3.998 0 01.381-.46 4.491 4.491 0 01.477-.435 4.193 4.193 0 01.31-.222c.052-.034.105-.065.159-.097.1-.06.204-.116.31-.168.054-.026.107-.053.162-.077l.063-.029a4.334 4.334 0 011.676-.335h2.374c.594 0 1.16.12 1.675.336l.064.028c.055.024.107.052.16.078.107.052.21.107.312.167.054.032.107.063.16.097a4.554 4.554 0 011.051.964c.04.05.078.101.115.154.035.05.072.098.104.149a4.344 4.344 0 01.25.438 4.154 4.154 0 01.155.343c.024.061.046.123.068.186.019.054.038.107.055.161.033.11.062.223.086.336.01.044.017.089.025.133a4.542 4.542 0 01.075.784v5.937zm3.166-5.541v3.958h-2.375v-4.354a5.16 5.16 0 00-.03-.556c-.006-.043-.015-.085-.02-.128a5.2 5.2 0 00-.072-.42c-.01-.044-.023-.088-.034-.133a5.167 5.167 0 00-.114-.396c-.014-.044-.031-.087-.047-.13a5.125 5.125 0 00-.407-.856l-.076-.125a5.326 5.326 0 00-.226-.327c-.029-.039-.057-.078-.087-.116a5.091 5.091 0 00-.274-.317c-.027-.029-.052-.06-.08-.087a5.116 5.116 0 00-.393-.366 4.359 4.359 0 014.235 4.353zm-5.255-10.64a2.774 2.774 0 013.276 2.723 2.774 2.774 0 01-2.77 2.77 2.75 2.75 0 01-1.515-.452c.006-.004.01-.01.016-.015.34-.27.635-.597.87-.965l.022-.035c.069-.11.132-.222.19-.338l.027-.057c.052-.11.1-.222.142-.337l.026-.071c.038-.11.071-.224.1-.338l.022-.086a4.26 4.26 0 00.06-.341c.004-.03.01-.06.013-.092a3.76 3.76 0 00-.003-.897c-.005-.048-.015-.096-.022-.144a4.077 4.077 0 00-.1-.464 3.805 3.805 0 00-.111-.336c-.012-.03-.021-.062-.034-.092a3.922 3.922 0 00-.205-.425l-.004-.008zm-1.013-.085l.024.03c.02.025.037.05.055.075.202.265.356.555.465.86l.022.06c.047.141.082.287.109.435l.014.094c.022.152.038.306.038.462 0 .13-.01.258-.026.385l-.014.09a3.09 3.09 0 01-.063.31l-.016.064c-.072.255-.174.5-.305.728l-.007.011a3.07 3.07 0 01-.212.317l-.021.028a3.174 3.174 0 01-.56.562l-.037.028a3.19 3.19 0 01-.307.206c-.02.011-.037.024-.056.034l-.046.026a3.143 3.143 0 01-2.994 0l-.045-.026c-.02-.01-.037-.023-.056-.034a3.19 3.19 0 01-.307-.206l-.038-.028a3.201 3.201 0 01-.56-.562l-.02-.028a3.197 3.197 0 01-.212-.317l-.007-.011a3.172 3.172 0 01-.306-.728l-.017-.064a3.153 3.153 0 01-.062-.31l-.014-.09a3.111 3.111 0 01-.026-.385c0-.156.016-.31.038-.462l.014-.094c.027-.147.062-.293.11-.435l.021-.06c.109-.305.263-.595.465-.86l.055-.074.024-.031a3.161 3.161 0 014.88 0zM2.77 4.75a2.774 2.774 0 013.277-2.723l-.003.008a3.968 3.968 0 00-.206.425c-.013.03-.022.061-.034.092a3.88 3.88 0 00-.21.8c-.008.048-.017.095-.023.144-.018.152-.03.306-.03.462 0 .148.01.293.026.436l.014.09a3.9 3.9 0 00.06.343l.021.084c.029.115.062.228.1.339l.026.072c.043.114.09.227.142.336l.028.058c.058.116.12.228.19.337l.021.036c.236.368.53.694.87.965l.017.015c-.448.293-.97.452-1.514.452A2.774 2.774 0 012.77 4.75zM.793 16.625v-3.958a4.36 4.36 0 014.235-4.353 5.202 5.202 0 00-.393.365c-.028.029-.053.059-.08.088a5.115 5.115 0 00-.274.317c-.03.038-.058.077-.087.116a5.054 5.054 0 00-.493.803l-.062.128a4.954 4.954 0 00-.154.377c-.016.043-.033.086-.047.13-.044.13-.08.262-.114.397-.011.044-.025.088-.034.133-.03.137-.053.278-.072.42l-.02.127a5.15 5.15 0 00-.03.556v4.354H.792z" fill="#fff"/></svg>