<svg width="23" height="23" fill="none" xmlns="http://www.w3.org/2000/svg"><path d="M8.195 7.57c.18-.566.403-1.029.717-1.388a3.5 3.5 0 011.163-.874c.448-.205.985-.308 1.567-.308.448 0 .896.103 1.299.257.403.154.76.411 1.074.668.313.257.537.668.716 1.079.18.411.269.925.269 1.49 0 .72-.134 1.285-.403 1.799-.268.513-.627.976-1.03 1.438l-.805.925a1.943 1.943 0 00-.448.668 1.9 1.9 0 00-.18.77c-.044.31-.044.515-.044 1.08h-1.03c0-.565 0-.822.09-1.182.045-.411.179-.72.313-1.079.135-.308.359-.617.582-.925.269-.308.537-.617.896-.976.313-.308.582-.668.76-1.08.225-.41.314-.873.314-1.335 0-.36-.045-.72-.179-1.028-.134-.308-.313-.565-.492-.822-.18-.257-.448-.411-.761-.514-.27-.103-.582-.205-.896-.205-.447 0-.85.102-1.164.257-.358.154-.627.41-.85.719a2.874 2.874 0 00-.493 1.079c-.09.411-.179.77-.134 1.233h-1.03c-.045-.72 0-1.182.18-1.747zm2.686 8.991h1.254V18H10.88v-1.439z" fill="#fff"/><circle cx="11.5" cy="11.5" r="11" stroke="#fff"/></svg>