<svg width="22" height="22" fill="none" xmlns="http://www.w3.org/2000/svg"><path d="M8.334 2.333V1h3.333v1.333m.667 3.334H1v12h11.334v-12z" stroke="#fff" stroke-width=".87" stroke-linejoin="round"/><path d="M12.334 2.333H1v18.668h11.334V2.333z" stroke="#fff" stroke-width=".87" stroke-linejoin="round"/><path d="M6.667 16.334a3.667 3.667 0 100-7.334 3.667 3.667 0 000 7.334zM6.668 9v-.177a2.413 2.413 0 011.333-2.156v0M5.166 8.5c-.32-.32-.5-.754-.5-1.207V7h.293a1.707 1.707 0 011.707 1.707V9h-.293c-.453 0-.887-.18-1.207-.5v0zm1.502 1.834a2.333 2.333 0 012.333 2.333m4.665-3H21v10.667a.667.667 0 01-.667.666h-6a.667.667 0 01-.667-.666V9.667zm6.667 0V6.334H19v3.333m-5.334 10H21" stroke="#fff" stroke-width=".87" stroke-linejoin="round"/><path d="M13.666 13l.43-.43a.803.803 0 011.14 0l.193.194A.804.804 0 0016 13v0a.804.804 0 00.57-.236l.194-.194a.802.802 0 01.57-.236v0a.803.803 0 01.57.236l.193.194a.804.804 0 00.57.236v0a.803.803 0 00.57-.236l.194-.194a.804.804 0 01.57-.236v0a.803.803 0 01.57.236L21 13" stroke="#fff" stroke-width=".87" stroke-linejoin="round"/></svg>