<svg width="21" height="21" fill="none" xmlns="http://www.w3.org/2000/svg"><path d="M3.5 5.25H0v13.563A2.19 2.19 0 002.188 21h16.625A2.19 2.19 0 0021 18.812V0H3.5v5.25zM.875 18.813V6.124H3.5v12.688c0 .723-.589 1.312-1.313 1.312a1.314 1.314 0 01-1.312-1.313zM4.375.875h15.75v17.938c0 .723-.589 1.312-1.313 1.312H3.938c.013-.017.022-.037.034-.054.025-.036.047-.073.07-.11a2.127 2.127 0 00.262-.62c.01-.042.023-.08.03-.123.026-.132.042-.266.042-.405V.874z" fill="#fff"/><path d="M18.375 3.063H6.125v.874h12.25v-.874zm-1.75 2.187h-8.75v.875h8.75V5.25zm1.75 3.5h-5.25v.875h5.25V8.75zm0 2.188h-5.25v.874h5.25v-.874zm-7-2.188h-5.25V14h5.25V8.75zm-.875 4.375H7v-3.5h3.5v3.5zm7.875 0h-5.25V14h5.25v-.875zm-7 2.188h-5.25v.874h5.25v-.875zm7 0h-5.25v.874h5.25v-.875zm-7 2.187h-5.25v.875h5.25V17.5zm7 0h-5.25v.875h5.25V17.5z" fill="#fff"/></svg>