<svg width="20" height="23" fill="none" xmlns="http://www.w3.org/2000/svg"><path d="M18 .6h-4.766v.8H18c.22 0 .4.18.4.4v20a.4.4 0 01-.4.4H1.2a.4.4 0 01-.4-.4v-20c0-.22.18-.4.4-.4H6V.6H1.2C.538.6 0 1.14 0 1.8v20c0 .662.538 1.2 1.2 1.2H18c.662 0 1.2-.538 1.2-1.2v-20c0-.661-.538-1.2-1.2-1.2z" fill="#fff"/><path d="M17.198 15.8a.4.4 0 01-.4-.4V3h-2a.4.4 0 010-.8h2.4a.4.4 0 01.4.4v12.8a.4.4 0 01-.4.4zm-3.996 5.6h-11.2a.4.4 0 01-.4-.4V2.6a.4.4 0 01.4-.4h2.4a.4.4 0 010 .8h-2v17.6h10.8a.4.4 0 010 .8z" fill="#fff"/><path d="M13.2 21.4a.4.4 0 01-.4-.4v-4c0-.22.18-.4.4-.4h4a.4.4 0 01.284.683l-4 4a.403.403 0 01-.283.117zm.4-4v2.635l2.635-2.635h-2.634zm-9.079-4.787h-.008a.397.397 0 01-.295-.14l-.922-1.076a.4.4 0 11.607-.52l.633.737 1.272-1.354a.4.4 0 11.583.549l-1.578 1.679a.405.405 0 01-.292.125zm0-4h-.008a.397.397 0 01-.295-.14l-.922-1.076a.4.4 0 11.607-.52l.633.737L5.808 6.26a.4.4 0 11.583.549L4.813 8.488a.405.405 0 01-.292.125zM10.8 16.6H7.6a.4.4 0 010-.8h3.2a.4.4 0 010 .8zm4-1.6H7.6a.4.4 0 010-.8h7.2a.4.4 0 010 .8zm0-4h-2.4a.4.4 0 010-.8h2.4a.4.4 0 010 .8zm-1.6 1.6H7.6a.4.4 0 010-.8h5.6a.4.4 0 010 .8zM10.8 11H7.6a.4.4 0 010-.8h3.2a.4.4 0 010 .8zm4-4H7.6a.4.4 0 010-.8h7.2a.4.4 0 010 .8zm-3.2 1.6h-4a.4.4 0 010-.8h4a.4.4 0 010 .8zm-6.4 8H3.6a.4.4 0 01-.4-.4v-1.6a.4.4 0 01.4-.4h1.6c.22 0 .4.18.4.4v1.6a.4.4 0 01-.4.4zM4 15.8h.8V15H4v.8zm8.202-11h-7.2a.4.4 0 01-.4-.4V2c0-.662.538-1.2 1.2-1.2a.4.4 0 010 .8.4.4 0 00-.4.4v2h6.4V2a.4.4 0 00-.4-.4.4.4 0 010-.8c.661 0 1.2.538 1.2 1.2v2.4a.4.4 0 01-.4.4z" fill="#fff"/><path d="M9.8 1.6a.4.4 0 01-.4-.4.4.4 0 00-.4-.4h-.8a.39.39 0 00-.237.078.395.395 0 00-.163.322.4.4 0 01-.8 0A1.204 1.204 0 018.2 0H9c.662 0 1.2.538 1.2 1.2a.4.4 0 01-.4.4z" fill="#fff"/></svg>