<svg width="18" height="18" fill="none" xmlns="http://www.w3.org/2000/svg"><path d="M14.892 5.65a.7.7 0 00.988-.114.703.703 0 00-.116-.988L10.21.154a.703.703 0 00-.873 1.102l.377.298L.657 13.025a3.056 3.056 0 00-.635 2.268 3.056 3.056 0 001.155 2.052A3.06 3.06 0 003.073 18c.91 0 1.812-.4 2.418-1.168l1.732-2.11a.703.703 0 10-1.087-.893L4.4 15.945a1.672 1.672 0 01-2.98-.82c-.054-.443.069-.88.343-1.23l4.39-5.561h4.263l-2.178 2.764a.703.703 0 101.105.87l5.197-6.596.353.279zm-3.37 1.278H7.264l3.553-4.501 2.62 2.072-1.913 2.429zm5.48 3.532a17.6 17.6 0 00-.921-1.239.703.703 0 00-1.083 0c-.02.023-.467.565-.92 1.239-.896 1.328-1 1.95-1 2.303a2.464 2.464 0 002.461 2.461A2.464 2.464 0 0018 12.764c0-.353-.104-.976-.999-2.304zm-1.463 3.358a1.056 1.056 0 01-1.055-1.055c0-.04.022-.42.753-1.509.102-.152.205-.297.302-.43.095.13.196.273.296.421.738 1.095.759 1.478.759 1.518 0 .582-.473 1.055-1.055 1.055z" fill="#fff"/></svg>