<svg width="21" height="16" fill="none" xmlns="http://www.w3.org/2000/svg"><path d="M21 0H0v15.75h21V0zm-.875 14.875H.875v-14h19.25v14z" fill="#fff"/><path d="M9.625 8.75a2.188 2.188 0 00-1.794-2.148c.296-.374.481-.84.481-1.352a2.19 2.19 0 00-2.187-2.188A2.19 2.19 0 003.937 5.25c0 .513.185.978.482 1.352A2.188 2.188 0 002.625 8.75v3.062h7V8.75zm-3.5-4.813c.724 0 1.313.59 1.313 1.313s-.59 1.312-1.313 1.312A1.314 1.314 0 014.812 5.25c0-.724.59-1.313 1.313-1.313zm2.625 7H3.5V8.75c0-.724.589-1.313 1.313-1.313h2.625c.723 0 1.312.59 1.312 1.313v2.187zm5.248-6.562h-3.063v.875h3.063v-.875zm4.379 0h-3.062v.875h3.062v-.875zm-6.129 2.187h-1.313v.875h1.313v-.875zm6.127 0h-4.813v.875h4.813v-.875zm-3.94 2.188h-3.5v.875h3.5V8.75zm3.942 0h-1.75v.875h1.75V8.75zm-6.567 2.187h-.875v.875h.875v-.875zm1.755 0h-.875v.875h.875v-.875zm1.748 0h-.876v.875h.876v-.875zm3.062 0H17.5v.875h.875v-.875z" fill="#fff"/></svg>