<svg width="21" height="19" fill="none" xmlns="http://www.w3.org/2000/svg"><path d="M19.114 1.865c-2.322-2.29-5.988-2.468-8.52-.535A6.76 6.76 0 006.55 0C4.785 0 3.086.68 1.886 1.865-.137 3.86-.585 6.975.796 9.442c.288.518.654.998 1.09 1.429l7.99 7.876a.88.88 0 00.62.253.88.88 0 00.618-.253l8-7.877a6.28 6.28 0 001.088-1.426c1.383-2.467.936-5.584-1.088-7.579zm-.446 6.747a4.557 4.557 0 01-.791 1.036l-7.382 7.268-7.37-7.267a4.58 4.58 0 01-.793-1.037L2.33 8.61a4.61 4.61 0 01.795-5.522c.874-.864 2.122-1.36 3.424-1.36 1.303 0 2.552.496 3.429 1.36a.885.885 0 001.238 0c1.836-1.81 4.824-1.81 6.66 0a4.61 4.61 0 01.792 5.525z" fill="#fff"/><path d="M12.275 6.776h-.05v-.052A1.728 1.728 0 0010.5 5c-.95 0-1.724.774-1.724 1.724v.052h-.052C7.774 6.776 7 7.549 7 8.5c0 .95.773 1.724 1.724 1.724h.052v.052c0 .95.773 1.724 1.724 1.724.95 0 1.724-.773 1.724-1.726v-.05h.051c.951 0 1.725-.773 1.725-1.724 0-.95-.774-1.724-1.725-1.724zm0 2.148h-.702a.65.65 0 00-.65.651l.002.7a.425.425 0 01-.85 0l-.001-.662a.65.65 0 00-.648-.69h-.702a.425.425 0 010-.847h.701a.65.65 0 00.65-.65v-.702a.425.425 0 01.85 0v.702c0 .358.291.65.65.65h.7a.425.425 0 110 .848z" fill="#fff"/></svg>