<svg width="21" height="33" fill="none" xmlns="http://www.w3.org/2000/svg"><path d="M10.014 17.356a8.678 8.678 0 10-8.678-8.678 8.689 8.689 0 008.678 8.678zm0-13.35a4.673 4.673 0 110 9.345 4.673 4.673 0 010-9.346z" fill="#fff"/><path d="M18.514 21.468a3.362 3.362 0 001.513-2.803 2.422 2.422 0 00-1.358-2.21 2.537 2.537 0 00-2.67.25 10.159 10.159 0 01-11.97 0 2.55 2.55 0 00-2.67-.25A2.424 2.424 0 000 18.663a3.366 3.366 0 001.513 2.804 15.413 15.413 0 003.912 1.869c.235.073.477.14.727.203l-4.034 3.945A2.67 2.67 0 105.9 31.252l4.113-4.257 4.12 4.265a2.67 2.67 0 103.77-3.781l-4.028-3.941c.25-.065.493-.133.73-.205a15.356 15.356 0 003.908-1.865z" fill="#fff"/></svg>