<svg width="17" height="25" fill="none" xmlns="http://www.w3.org/2000/svg"><path d="M8.797 13.524a6.762 6.762 0 10-6.762-6.762 6.77 6.77 0 006.762 6.762zm0-10.403a3.641 3.641 0 110 7.282 3.641 3.641 0 010-7.282z" fill="#323232"/><path d="M15.419 16.729a2.62 2.62 0 001.178-2.185 1.89 1.89 0 00-1.058-1.722 1.976 1.976 0 00-2.08.196 7.916 7.916 0 01-9.327 0 1.987 1.987 0 00-2.08-.196 1.89 1.89 0 00-1.06 1.721c.002.88.445 1.7 1.18 2.185a12.007 12.007 0 003.047 1.456c.183.057.372.11.567.158l-3.144 3.075a2.08 2.08 0 102.949 2.935l3.204-3.316 3.21 3.323a2.08 2.08 0 102.938-2.947l-3.138-3.07c.194-.05.384-.104.569-.16a11.965 11.965 0 003.045-1.453z" fill="#323232"/></svg>