<svg width="32" height="26" fill="none" xmlns="http://www.w3.org/2000/svg"><path d="M32 3.61c-1.19.505-2.458.84-3.78 1.003 1.36-.786 2.398-2.022 2.886-3.512a13.37 13.37 0 01-4.16 1.538A6.675 6.675 0 0022.154.628c-3.632 0-6.556 2.856-6.556 6.357 0 .504.044.988.152 1.45-5.454-.259-10.28-2.79-13.522-6.648a6.247 6.247 0 00-.898 3.212c0 2.2 1.17 4.152 2.914 5.282a6.64 6.64 0 01-2.964-.783v.07c0 3.088 2.274 5.653 5.256 6.244a6.744 6.744 0 01-1.72.21c-.42 0-.844-.024-1.242-.11.85 2.518 3.262 4.368 6.13 4.428a13.455 13.455 0 01-8.134 2.71c-.538 0-1.054-.023-1.57-.087 2.906 1.816 6.35 2.852 10.064 2.852 12.072 0 18.672-9.687 18.672-18.084 0-.281-.01-.552-.024-.822A12.87 12.87 0 0032 3.61z" fill="#fff"/></svg>