<svg width="26" height="20" fill="none" xmlns="http://www.w3.org/2000/svg"><path d="M25.128 2.324c-.927.394-1.915.655-2.945.782A4.956 4.956 0 0024.432.368c-.988.571-2.08.974-3.242 1.2A5.2 5.2 0 0017.456 0c-2.83 0-5.108 2.225-5.108 4.953 0 .393.034.77.118 1.13-4.25-.201-8.01-2.174-10.537-5.18-.44.741-.7 1.59-.7 2.503 0 1.715.912 3.235 2.271 4.116a5.174 5.174 0 01-2.31-.61v.054c0 2.407 1.773 4.405 4.096 4.866-.416.11-.87.163-1.34.163-.327 0-.658-.018-.968-.085.663 1.962 2.542 3.403 4.777 3.45a10.484 10.484 0 01-6.338 2.112c-.42 0-.822-.018-1.224-.068 2.265 1.415 4.948 2.223 7.842 2.223 9.407 0 14.55-7.549 14.55-14.092 0-.22-.008-.43-.018-.64a10.028 10.028 0 002.561-2.571z" fill="#323232"/></svg>