<svg width="33" height="20" fill="none" xmlns="http://www.w3.org/2000/svg"><path d="M15.693 19.14h1.916s.58-.064.874-.383c.273-.293.263-.842.263-.842s-.038-2.572 1.157-2.95c1.176-.374 2.688 2.485 4.29 3.586 1.21.832 2.13.65 2.13.65l4.285-.061s2.24-.138 1.178-1.9c-.086-.145-.62-1.303-3.185-3.685-2.686-2.494-2.325-2.089.91-6.4 1.97-2.627 2.758-4.23 2.512-4.916-.235-.654-1.684-.481-1.684-.481l-4.82.028s-.356-.048-.623.11c-.258.156-.425.517-.425.517s-.764 2.033-1.782 3.76c-2.147 3.647-3.007 3.84-3.358 3.613-.816-.527-.611-2.12-.611-3.251 0-3.535.535-5.008-1.044-5.389-.526-.126-.91-.21-2.252-.224-1.72-.018-3.177.006-4.001.409-.55.268-.972.868-.714.902.32.042 1.04.194 1.424.715.495.672.477 2.183.477 2.183s.284 4.16-.664 4.677c-.651.355-1.543-.369-3.458-3.678-.98-1.694-1.722-3.569-1.722-3.569s-.142-.348-.397-.535c-.308-.226-.741-.298-.741-.298l-4.583.028s-.688.02-.94.318c-.225.267-.018.816-.018.816s3.588 8.394 7.65 12.626c3.726 3.879 7.956 3.624 7.956 3.624z" fill="#fff"/></svg>