<svg width="25" height="15" fill="none" xmlns="http://www.w3.org/2000/svg"><path d="M12.228 14.2h1.494s.451-.05.68-.299c.213-.228.205-.656.205-.656s-.03-2.004.902-2.3c.917-.29 2.094 1.938 3.343 2.795.943.648 1.66.506 1.66.506l3.338-.047s1.747-.107.919-1.48c-.067-.113-.483-1.016-2.482-2.872-2.094-1.943-1.813-1.627.709-4.987 1.535-2.047 2.15-3.296 1.957-3.83-.183-.51-1.312-.375-1.312-.375l-3.755.022s-.278-.038-.486.085c-.202.122-.331.403-.331.403s-.595 1.584-1.389 2.93c-1.673 2.842-2.343 2.992-2.617 2.816-.635-.411-.476-1.653-.476-2.534 0-2.754.417-3.902-.814-4.199-.41-.098-.709-.164-1.754-.175-1.34-.014-2.476.005-3.118.319-.428.21-.758.676-.556.703.248.033.81.151 1.109.558.386.523.372 1.7.372 1.7s.222 3.242-.517 3.645c-.508.276-1.203-.287-2.695-2.866C5.85 2.742 5.272 1.28 5.272 1.28s-.11-.272-.309-.417A1.547 1.547 0 004.385.63L.815.653S.277.67.081.901c-.175.208-.014.636-.014.636s2.796 6.54 5.96 9.838c2.904 3.023 6.2 2.824 6.2 2.824z" fill="#323232"/></svg>